<svg width="30" height="35" viewBox="0 0 30 35" fill="none" xmlns="http://www.w3.org/2000/svg">
<g id="Group 94">
<path id="Vector" d="M22.282 8C19.1313 8 17.7998 9.51377 15.6056 9.51377C13.3559 9.51377 11.6399 8.01101 8.90961 8.01101C6.23717 8.01101 3.38735 9.65382 1.57759 12.4524C-0.96357 16.3989 -0.532229 23.8316 3.58348 30.1637C5.05567 32.4304 7.02171 34.9725 9.60038 35H9.64726C11.8884 35 12.5541 33.5224 15.6384 33.5051H15.6853C18.7234 33.5051 19.3329 34.9913 21.5646 34.9913H21.6115C24.1902 34.9638 26.2617 32.1471 27.7339 29.8891C28.7935 28.2651 29.1873 27.45 30 25.6129C24.0464 23.3375 23.0899 14.8395 28.9779 11.5814C27.1807 9.3155 24.6551 8.00315 22.2742 8.00315L22.282 8Z" fill="white"/>
<path id="Vector_2" d="M21.9358 0C20.1221 0.120998 18.0061 1.25527 16.7667 2.7362C15.6422 4.07831 14.7172 6.06922 15.08 8H15.2251C17.1567 8 19.1336 6.85757 20.2883 5.39371C21.4008 4.00037 22.2441 2.0258 21.9358 0Z" fill="white"/>
</g>
</svg>
