<svg xmlns="http://www.w3.org/2000/svg">
    <symbol id="watch-the-video-apple-icon">
        <path id="Vector" d="M22.282 8C19.1313 8 17.7998 9.51377 15.6056 9.51377C13.3559 9.51377 11.6399 8.01101 8.90961 8.01101C6.23717 8.01101 3.38735 9.65382 1.57759 12.4524C-0.96357 16.3989 -0.532229 23.8316 3.58348 30.1637C5.05567 32.4304 7.02171 34.9725 9.60038 35H9.64726C11.8884 35 12.5541 33.5224 15.6384 33.5051H15.6853C18.7234 33.5051 19.3329 34.9913 21.5646 34.9913H21.6115C24.1902 34.9638 26.2617 32.1471 27.7339 29.8891C28.7935 28.2651 29.1873 27.45 30 25.6129C24.0464 23.3375 23.0899 14.8395 28.9779 11.5814C27.1807 9.3155 24.6551 8.00315 22.2742 8.00315L22.282 8Z" fill="white"/>
        <path id="Vector_2" d="M21.9358 0C20.1221 0.120998 18.0061 1.25527 16.7667 2.7362C15.6422 4.07831 14.7172 6.06922 15.08 8H15.2251C17.1567 8 19.1336 6.85757 20.2883 5.39371C21.4008 4.00037 22.2441 2.0258 21.9358 0Z" fill="white"/>
    </symbol>

    <symbol id="watch-the-video-android-icon">
        <path d="M5.91772 27.2294C5.91772 28.1695 6.71376 28.9369 7.69318 28.9369H9.72287V33.7742C9.72287 34.9996 10.744 36 11.9985 36C13.2571 36 14.2741 35.0036 14.2741 33.7742V28.9329H17.8166V33.7702C17.8166 34.9956 18.8377 35.996 20.0922 35.996C21.3509 35.996 22.3678 34.9996 22.3678 33.7702V28.9329H24.3975C25.3769 28.9329 26.173 28.1655 26.173 27.2254V11.3475H5.91772V27.2294ZM20.8008 3.11932L22.6721 0.50783C22.7804 0.355158 22.7554 0.150256 22.6096 0.0498142C22.4637 -0.0466101 22.2553 0.00160229 22.1469 0.154274L20.2048 2.87022C18.9253 2.38409 17.4999 2.1149 16.0037 2.1149C14.5074 2.1149 13.0821 2.38409 11.8026 2.87022L9.86041 0.158292C9.75205 0.00561991 9.54366 -0.0466099 9.39779 0.0538321C9.25192 0.150256 9.22691 0.35114 9.33527 0.511847L11.2066 3.12334C8.23082 4.45721 6.14694 6.98433 5.88021 9.93732H26.1355C25.8604 6.98031 23.7724 4.45319 20.8008 3.11932ZM11.7276 7.23744C11.5058 7.23744 11.2891 7.17406 11.1047 7.0553C10.9203 6.93655 10.7766 6.76775 10.6918 6.57027C10.6069 6.37279 10.5847 6.15549 10.628 5.94584C10.6712 5.73619 10.778 5.54362 10.9348 5.39248C11.0916 5.24133 11.2914 5.1384 11.5088 5.0967C11.7263 5.055 11.9517 5.0764 12.1566 5.1582C12.3615 5.24 12.5366 5.37852 12.6597 5.55625C12.7829 5.73398 12.8487 5.94293 12.8487 6.15668C12.8479 6.44309 12.7295 6.71755 12.5195 6.92007C12.3094 7.12259 12.0247 7.2367 11.7276 7.23744ZM20.4132 7.23744C20.1914 7.23744 19.9747 7.17406 19.7903 7.0553C19.6059 6.93655 19.4622 6.76775 19.3774 6.57027C19.2925 6.37279 19.2703 6.15549 19.3136 5.94584C19.3568 5.73619 19.4636 5.54362 19.6204 5.39248C19.7772 5.24133 19.977 5.1384 20.1944 5.0967C20.4119 5.055 20.6373 5.0764 20.8422 5.1582C21.047 5.24 21.2221 5.37852 21.3453 5.55625C21.4685 5.73398 21.5343 5.94293 21.5343 6.15668C21.5335 6.44309 21.4151 6.71755 21.2051 6.92007C20.995 7.12259 20.7103 7.2367 20.4132 7.23744ZM29.7239 11.2832C28.4652 11.2832 27.4483 12.2796 27.4483 13.509V22.2033C27.4483 23.4287 28.4694 24.4291 29.7239 24.4291C30.9826 24.4291 31.9995 23.4327 31.9995 22.2033V13.505C32.0037 12.2756 30.9867 11.2832 29.7239 11.2832ZM2.2751 11.2832C1.01644 11.2832 -0.000488281 12.2796 -0.000488281 13.509V22.2033C-0.000488281 23.4287 1.02061 24.4291 2.2751 24.4291C3.53376 24.4291 4.55069 23.4327 4.55069 22.2033V13.505C4.55069 12.2756 3.5296 11.2832 2.2751 11.2832Z" fill="white"/>
    </symbol>
</svg>