<svg aria-hidden="true" style="position: absolute; width: 0; height: 0; overflow: hidden;" version="1.1" xmlns="http://www.w3.org/2000/svg" xmlns:xlink="http://www.w3.org/1999/xlink">
<defs>
<symbol id="icon-twit" viewBox="0 0 32 32">
<path fill="#fff" style="fill: var(--color1, #fff)" d="M30.134 5.599c-1.184 0.835-2.495 1.474-3.882 1.892-0.744-0.856-1.734-1.463-2.835-1.738s-2.26-0.206-3.32 0.198c-1.060 0.405-1.97 1.125-2.608 2.064s-0.971 2.051-0.956 3.185v1.236c-2.173 0.056-4.326-0.426-6.267-1.403s-3.611-2.419-4.86-4.198c0 0-4.945 11.127 6.182 16.073-2.546 1.728-5.58 2.595-8.655 2.473 11.127 6.182 24.727 0 24.727-14.218-0.001-0.344-0.034-0.688-0.099-1.026 1.262-1.244 2.152-2.816 2.572-4.537z"></path>
</symbol>
<symbol id="icon-face" viewBox="0 0 32 32">
<path fill="#fff" style="fill: var(--color1, #fff)" d="M22.4 2.667h-4c-1.768 0-3.464 0.702-4.714 1.953s-1.953 2.946-1.953 4.714v4h-4v5.333h4v10.667h5.333v-10.667h4l1.333-5.333h-5.333v-4c0-0.354 0.14-0.693 0.391-0.943s0.589-0.391 0.943-0.391h4v-5.333z"></path>
</symbol>
<symbol id="icon-Ellipse-24" viewBox="0 0 43 32">
<path fill="#7d55ff" style="fill: var(--color2, #7d55ff)" opacity="0.3" d="M13.29 16c0 1.497 3.755 2.71 8.387 2.71s8.387-1.213 8.387-2.71c0-1.496-3.755-2.71-8.387-2.71s-8.387 1.213-8.387 2.71z"></path>
</symbol>
<symbol id="icon-Ellipse-23" viewBox="0 0 48 32">
<path fill="#00c5eb" style="fill: var(--color3, #00c5eb)" opacity="0.3" d="M7.355 16c0 1.497 6.152 2.71 13.742 2.71s13.742-1.213 13.742-2.71c0-1.496-6.152-2.71-13.742-2.71s-13.742 1.213-13.742 2.71z"></path>
</symbol>
<symbol id="icon-Ellipse-20" viewBox="0 0 39 32">
<path fill="#00c5eb" style="fill: var(--color3, #00c5eb)" opacity="0.3" d="M22.417 23.936c8.147-2.19 14.531-7.519 14.26-11.903s-7.096-6.161-15.244-3.971c-8.147 2.19-14.531 7.519-14.26 11.903s7.097 6.161 15.244 3.971z"></path>
</symbol>
<symbol id="icon-Ellipse-19" viewBox="0 0 38 32">
<path fill="#7d55ff" style="fill: var(--color2, #7d55ff)" opacity="0.3" d="M20.67 24.584c-6.982 2.673-13.45 0.998-14.446-3.742s3.856-10.75 10.838-13.424c6.982-2.673 13.45-0.998 14.446 3.742s-3.856 10.75-10.838 13.424z"></path>
</symbol>
<symbol id="icon-link" viewBox="0 0 32 32">
<path fill="#fff" style="fill: var(--color1, #fff)" d="M8.268 28h-5.805v-18.694h5.805v18.694zM5.362 6.756c-1.856 0-3.362-1.538-3.362-3.394 0-0.892 0.354-1.747 0.985-2.377s1.486-0.985 2.377-0.985c0.892 0 1.747 0.354 2.377 0.985s0.985 1.486 0.985 2.377c0 1.856-1.506 3.394-3.362 3.394zM29.994 28h-5.792v-9.1c0-2.169-0.044-4.95-3.018-4.95-3.018 0-3.481 2.356-3.481 4.794v9.256h-5.799v-18.694h5.567v2.55h0.081c0.775-1.469 2.668-3.019 5.492-3.019 5.875 0 6.955 3.869 6.955 8.894v10.269h-0.005z"></path>
</symbol>
</defs>
</svg>
