<svg xmlns="http://www.w3.org/2000/svg" aria-hidden="true" style="position:absolute;width:0;height:0;overflow:hidden">
  <defs>
    <symbol id="icon-arrow" viewBox="0 0 32 32">
      <path fill="#fff" d="m9.6 24 8-8-8-8 1.6-3.2L22.4 16 11.2 27.2 9.6 24z" style="fill:var(--color1, #fff)"/>
  <symbol id="icon-android" viewBox="0 0 28 32">
<path d="M5.26 24.204c0 0.836 0.708 1.517 1.578 1.517h1.804v4.3c0 1.090 0.908 1.979 2.022 1.979 1.12 0 2.023-0.885 2.023-1.979v-4.303h3.149v4.3c0 1.090 0.907 1.979 2.022 1.979 1.119 0 2.023-0.885 2.023-1.979v-4.3h1.804c0.87 0 1.578-0.682 1.578-1.518v-14.114h-18.004v14.118zM18.489 2.773l1.664-2.323c0.096-0.136 0.074-0.318-0.055-0.407-0.13-0.086-0.316-0.043-0.412 0.092l-1.726 2.415c-1.099-0.425-2.37-0.671-3.699-0.671-0.012 0-0.025 0-0.037 0h0.002c-1.331 0-2.597 0.24-3.734 0.671l-1.727-2.411c-0.096-0.135-0.281-0.182-0.411-0.092-0.13 0.085-0.152 0.264-0.056 0.407l1.664 2.321c-2.646 1.186-4.498 3.432-4.735 6.057h18.005c-0.245-2.628-2.102-4.875-4.743-6.060zM10.424 6.433c-0.197 0-0.39-0.056-0.554-0.162-0.162-0.104-0.288-0.251-0.365-0.425l-0.002-0.006c-0.048-0.108-0.076-0.235-0.076-0.368 0-0.066 0.007-0.131 0.020-0.193l-0.001 0.006c0.038-0.187 0.133-0.357 0.273-0.492 0.184-0.174 0.433-0.28 0.707-0.28 0.137 0 0.267 0.027 0.386 0.075l-0.007-0.002c0.181 0.073 0.338 0.196 0.447 0.354s0.168 0.344 0.168 0.533c-0.001 0.255-0.107 0.5-0.293 0.679s-0.439 0.282-0.703 0.282zM18.144 6.433c-0.197 0-0.389-0.056-0.554-0.162-0.162-0.104-0.288-0.251-0.365-0.425l-0.002-0.006c-0.048-0.108-0.075-0.234-0.075-0.366 0-0.067 0.007-0.132 0.020-0.194l-0.001 0.006c0.038-0.187 0.133-0.357 0.272-0.492 0.184-0.174 0.433-0.28 0.707-0.28 0.137 0 0.267 0.027 0.386 0.075l-0.007-0.002c0.182 0.073 0.338 0.196 0.447 0.354s0.169 0.344 0.169 0.533c-0.002 0.255-0.107 0.5-0.293 0.679s-0.44 0.282-0.704 0.282zM26.42 10.029c-1.118 0-2.022 0.886-2.022 1.979v7.728c0 1.090 0.908 1.979 2.023 1.979 1.119 0 2.023-0.885 2.023-1.979v-7.732c0.004-1.093-0.9-1.975-2.023-1.975zM2.021 10.029c-1.118 0-2.021 0.886-2.021 1.98v7.728c0 1.090 0.907 1.979 2.022 1.979 1.119 0 2.023-0.885 2.023-1.979v-7.732c0-1.093-0.908-1.975-2.023-1.975z"></path>
</symbol>
<symbol id="icon-apple" viewBox="0 0 36 32">
<path d="M26.408 0c-3.735 0-5.313 1.794-7.913 1.794-2.667 0-4.699-1.783-7.935-1.783-3.167 0-6.545 1.947-8.69 5.263-3.013 4.68-2.502 13.489 2.376 20.993 1.745 2.686 4.075 5.698 7.131 5.732h0.056c2.655 0 3.445-1.752 7.099-1.772h0.057c3.601 0 4.322 1.761 6.969 1.761h0.055c3.057-0.032 5.511-3.371 7.256-6.047 1.256-1.925 1.723-2.891 2.687-5.068-7.057-2.696-8.19-12.768-1.212-16.631-2.13-2.684-5.122-4.241-7.944-4.241l0.009-0.004z"></path>
</symbol>
  </defs>
</svg>
